<?xml version="1.0" standalone="no"?>
<!DOCTYPE svg PUBLIC "-//W3C//DTD SVG 20010904//EN"
 "http://www.w3.org/TR/2001/REC-SVG-20010904/DTD/svg10.dtd">
<svg version="1.0" xmlns="http://www.w3.org/2000/svg"
 width="400.000000pt" height="400.000000pt" viewBox="0 0 400.000000 400.000000"
 preserveAspectRatio="xMidYMid meet">
<metadata>
Created by potrace 1.11, written by Peter Selinger 2001-2013
</metadata>
<g transform="translate(0.000000,400.000000) scale(0.100000,-0.100000)"
fill="#000000" stroke="none">
<path d="M2505 3753 c-10 -9 -25 -35 -35 -57 -18 -42 -113 -238 -286 -592 -96
-199 -190 -392 -289 -599 -29 -60 -101 -209 -160 -330 -288 -593 -308 -639
-299 -701 10 -75 17 -101 38 -142 32 -62 88 -115 154 -145 74 -34 183 -35 259
-1 66 28 144 107 166 165 9 24 75 303 147 619 72 316 137 600 145 630 8 30 17
69 20 86 2 18 16 78 29 135 14 57 27 115 30 129 3 14 21 95 41 180 55 241 91
401 100 440 1 8 8 33 13 55 21 81 22 105 1 126 -23 23 -52 24 -74 2z m-675
-2122 c81 -34 117 -138 73 -213 -71 -121 -253 -98 -281 36 -26 127 90 226 208
177z"/>
<path d="M1910 3449 c-6 -9 -9 -28 -9 -41 2 -27 -10 -288 -17 -365 -4 -51 -3
-53 24 -59 15 -3 41 -10 59 -14 21 -5 35 -4 41 3 13 16 222 447 222 457 0 13
-92 25 -253 34 -47 3 -59 0 -67 -15z"/>
<path d="M1577 3440 c-55 -10 -106 -22 -115 -25 -10 -4 -28 -9 -42 -11 -57
-11 -212 -69 -317 -119 -109 -52 -296 -168 -323 -200 -11 -13 -1 -34 76 -150
52 -78 96 -134 105 -135 9 0 52 18 94 41 154 80 388 143 573 154 53 4 102 8
108 10 13 4 12 36 -1 240 -14 219 -13 216 -43 214 -9 0 -61 -9 -115 -19z"/>
<path d="M2601 3294 c-6 -24 -18 -76 -27 -116 -18 -87 -15 -70 -54 -243 -17
-77 -33 -146 -35 -152 -4 -12 104 -93 123 -93 5 0 72 97 148 215 184 283 171
260 155 279 -13 16 -144 85 -243 129 l-56 25 -11 -44z"/>
<path d="M3040 3013 c-19 -26 -39 -51 -45 -58 -15 -16 -246 -301 -277 -342 -7
-8 12 -38 62 -95 137 -158 256 -361 301 -516 7 -23 17 -46 24 -52 9 -8 139 37
230 80 11 5 106 43 210 85 105 42 196 79 203 82 19 8 15 29 -27 113 -93 187
-252 409 -397 555 -122 123 -208 195 -233 195 -9 0 -32 -22 -51 -47z"/>
<path d="M571 2902 c-149 -153 -262 -312 -355 -500 -57 -115 -118 -271 -112
-287 5 -13 153 -75 179 -75 8 0 34 37 57 83 104 201 270 406 433 535 31 25 57
49 57 55 0 8 -58 83 -95 123 -5 6 -30 34 -54 62 -24 29 -48 52 -53 52 -6 0
-31 -22 -57 -48z"/>
<path d="M3765 2004 c-89 -27 -177 -52 -360 -104 -296 -84 -277 -76 -271 -119
13 -96 18 -149 28 -316 1 -26 -11 -147 -21 -200 -18 -96 -20 -105 -26 -114 -3
-6 165 -9 419 -9 l424 1 6 26 c9 45 -2 291 -19 421 -17 125 -64 334 -90 397
-16 37 -20 38 -90 17z"/>
<path d="M63 1932 c-9 -6 -18 -48 -38 -173 -16 -105 -23 -357 -12 -444 3 -27
9 -76 13 -108 4 -38 12 -61 23 -66 18 -9 62 -8 78 2 6 4 10 51 11 109 0 57 3
123 6 148 2 25 7 73 11 107 3 35 7 68 10 75 2 7 6 29 9 48 3 19 18 78 32 130
37 136 37 132 -21 151 -69 22 -109 29 -122 21z"/>
<path d="M122 764 c-72 -37 -89 -93 -50 -171 19 -38 20 -46 8 -54 -8 -5 -25
-8 -37 -6 -21 4 -23 0 -23 -43 0 -34 4 -50 16 -54 30 -11 89 -6 130 13 75 34
93 90 53 161 -24 43 -20 70 11 70 19 0 21 5 18 48 l-3 47 -45 3 c-27 1 -58 -5
-78 -14z"/>
<path d="M2353 761 c-17 -11 -37 -29 -42 -40 -6 -11 -11 -77 -11 -150 l0 -131
65 0 64 0 3 117 c2 82 7 118 16 121 9 3 12 -25 12 -117 l0 -121 65 0 64 0 3
117 c3 103 5 118 21 121 15 3 17 -8 17 -117 l0 -121 65 0 65 0 0 135 c0 134 0
135 -28 166 -24 27 -37 33 -83 36 -45 4 -60 1 -90 -20 l-37 -25 -20 20 c-30
30 -108 35 -149 9z"/>
<path d="M320 605 l0 -165 60 0 60 0 1 78 0 77 36 -77 36 -78 68 0 68 0 -44
77 -44 76 30 44 30 43 -63 0 -63 0 -27 -43 -28 -42 0 88 0 87 -60 0 -60 0 0
-165z"/>
<path d="M1032 646 c3 -107 6 -127 23 -146 25 -29 91 -59 128 -60 26 0 27 2
27 50 0 41 -3 50 -18 50 -21 0 -42 18 -42 37 0 7 11 13 25 13 23 0 25 4 25 45
0 41 -2 45 -25 45 -23 0 -25 4 -25 45 l0 45 -61 0 -61 0 4 -124z"/>
<path d="M3192 646 c3 -107 6 -127 23 -146 25 -29 91 -59 128 -60 26 0 27 2
27 50 0 41 -3 50 -18 50 -21 0 -42 18 -42 37 0 7 11 13 25 13 23 0 25 4 25 45
0 41 -2 45 -25 45 -23 0 -25 4 -25 45 l0 45 -61 0 -61 0 4 -124z"/>
<path d="M724 661 c-50 -23 -84 -64 -84 -102 0 -60 84 -119 169 -119 30 0 31
1 31 45 0 43 -1 45 -29 45 -37 0 -59 24 -41 45 15 18 61 20 78 3 7 -7 12 -39
12 -75 l0 -63 60 0 60 0 0 70 c0 45 -6 82 -16 101 -32 62 -156 88 -240 50z"/>
<path d="M1354 669 c-43 -12 -94 -72 -94 -109 0 -39 51 -97 98 -110 48 -13
101 -13 141 1 l33 11 -32 33 c-22 23 -38 31 -54 28 -38 -8 -68 14 -64 45 3 30
44 50 74 37 16 -7 13 -9 -16 -14 -22 -4 -36 -12 -38 -23 -3 -16 6 -18 92 -18
93 0 96 1 96 23 0 76 -127 128 -236 96z"/>
<path d="M1864 669 c-44 -13 -94 -72 -94 -111 0 -44 61 -103 118 -113 75 -12
131 2 174 45 47 47 50 84 11 131 -46 54 -125 73 -209 48z m106 -94 c16 -20 -3
-45 -35 -45 -32 0 -51 25 -35 45 7 8 23 15 35 15 12 0 28 -7 35 -15z"/>
<path d="M2914 669 c-43 -12 -94 -72 -94 -109 0 -39 51 -97 98 -110 48 -13
101 -13 141 1 l33 11 -32 33 c-22 23 -38 31 -54 28 -38 -8 -68 14 -64 45 3 30
44 50 74 37 16 -7 13 -9 -16 -14 -22 -4 -36 -12 -38 -23 -3 -16 6 -18 92 -18
93 0 96 1 96 23 0 76 -127 128 -236 96z"/>
<path d="M3504 669 c-43 -12 -94 -72 -94 -109 0 -39 51 -97 98 -110 48 -13
101 -13 141 1 l33 11 -32 33 c-22 23 -38 31 -54 28 -38 -8 -68 14 -64 45 3 30
44 50 74 37 16 -7 13 -9 -16 -14 -22 -4 -36 -12 -38 -23 -3 -16 6 -18 92 -18
93 0 96 1 96 23 0 76 -127 128 -236 96z"/>
<path d="M3864 666 c-52 -23 -64 -50 -64 -143 l0 -83 60 0 59 0 3 73 c3 66 5
72 26 75 19 3 22 9 22 48 l0 44 -37 0 c-21 -1 -52 -7 -69 -14z"/>
<path d="M1600 590 l0 -30 75 0 75 0 0 30 0 30 -75 0 -75 0 0 -30z"/>
<path d="M2120 590 l0 -30 75 0 75 0 0 30 0 30 -75 0 -75 0 0 -30z"/>
</g>
</svg>
